# xmcd
#
# Track frame offsets: 
#        300
#        9376
#        22602
#        39093
#        51439
#        71462
#        86750
#        107795
#        126344
#        147328
#
# Disc length: 2292 seconds
#
# Revision: 0
# Processed by: cddbd v1.5.2PL0 Copyright (c) Steve Scherf et al.
# Submitted via: ExactAudioCopyFreeDBPlugin 1.0
#
DISCID=7e08f00a
DTITLE=Damn the Luck - La Galette
DYEAR=2013
DGENRE=Bluegrass
TTITLE0=La Galette
TTITLE1=Trail Music
TTITLE2=Ol'Pine Road
TTITLE3=Ain't Gonna Rain
TTITLE4=Lawn'Mowin'
TTITLE5=Whiskey
TTITLE6=Crawfish
TTITLE7=Cold Out
TTITLE8=No More Weed
TTITLE9=Anchors Down
EXTD=
EXTT0=
EXTT1=
EXTT2=
EXTT3=
EXTT4=
EXTT5=
EXTT6=
EXTT7=
EXTT8=
EXTT9=
PLAYORDER=
